<?xml version="1.0" encoding="utf-8"?>
<!-- Generator: Adobe Illustrator 19.0.1, SVG Export Plug-In . SVG Version: 6.00 Build 0)  -->
<svg version="1.1" id="Layer_1" xmlns="http://www.w3.org/2000/svg" xmlns:xlink="http://www.w3.org/1999/xlink" x="0px" y="0px"
	 viewBox="-385 255.8 187.1 51.2" style="enable-background:new -385 255.8 187.1 51.2;" xml:space="preserve">
<style type="text/css">
	.st0{fill:#A12225;}
	.st1{fill:#3C5886;}
	.st2{fill:#FFFFFF;}
</style>
<path class="st0" d="M-380.8,267.2c1.5,0.4,7.4,2.2,11,3.3c3.6,1.1,6.2,1.8,8.3,2.4c2.1,0.6,1.9,2.2,0.3,2.1c-1.6-0.2-3.6-1-5.5-1.8
	c-1.9-0.7-8-2.5-11.1-3.6c-3.1-1-3.9-1-4.3-1.6C-382.5,267.3-382.3,266.8-380.8,267.2L-380.8,267.2z"/>
<path class="st0" d="M-358.5,273.7c1.3-0.1,1.5,1.2,1.2,1.9c-0.3,0.7-1.8,1-2.1,0.3C-359.9,274.9-359.9,273.9-358.5,273.7
	L-358.5,273.7z"/>
<path class="st0" d="M-341,263c-0.9,0.8-3.6,2.4-5.5,3.7c-1.9,1.3-5.5,3.7-6.5,4.3c-1,0.6-2.4,1.3-3.3,2.1c-0.9,0.8-0.6,2.1,0.8,1.6
	c1.3-0.4,2.7-1.2,3.6-2.1c0.9-0.9,1.8-1.5,2.7-2.1c0.9-0.6,7.7-5.7,9.1-6.5C-338.9,262.6-340.1,262.3-341,263L-341,263z"/>
<path class="st0" d="M-337.6,260.5c0.7,0,1,1.6,0.3,2.1c-0.7,0.4-1.8,0.4-1.8-1C-339.1,260-338.3,260.5-337.6,260.5L-337.6,260.5z"
	/>
<path class="st0" d="M-338,263.6c0.6,0,0.9,1.2,0.7,2.1c-0.2,0.9,0.1,6.7,0.3,8.7c0.1,2.1,0.1,3-0.2,3.7c-0.3,0.7,0,1.9,0,3.9
	c0,1.9-0.3,4.4-0.4,5.5c-0.2,1-0.3,1.8-0.9,1.6c-0.6-0.2-0.6-0.9-0.6-2.1c0-1.2,0-7.4,0.2-8.9c0.1-1.5,0.1-2.1,0.1-3.3
	c0-1.2,0-8.2,0-9.4C-338.8,264.3-338.6,263.6-338,263.6L-338,263.6z"/>
<path class="st0" d="M-338.5,290.3c0.9-0.1,1.2,1.5,0.7,1.9c-0.4,0.5-1.5,0.3-1.8-0.4C-339.8,291.1-339.4,290.5-338.5,290.3
	L-338.5,290.3z"/>
<path class="st0" d="M-383.9,265.8c0.8-0.1,1.1,1.3,0.4,1.9c-0.7,0.5-1.6,0.1-1.5-0.7C-384.9,266.2-384.7,266-383.9,265.8
	L-383.9,265.8z"/>
<path class="st0" d="M-382.1,264.6c1.9-0.9,5.7-3.3,6.6-3.6s2.6-1.3,3.3-1.9c0.7-0.5,2.8-1.7,3.2-2c0.4-0.3,2.3,0,0.7,1.1
	c-1.6,1.1-3.9,2.4-5.5,3.3c-1.6,0.9-6.1,3.3-7.1,3.7C-381.7,265.7-383.9,265.6-382.1,264.6L-382.1,264.6z"/>
<path class="st0" d="M-366.2,255.8c0.3-0.1,1.1,0.5,0.7,1.1c-0.4,0.5-0.9,0.9-1.5,0C-367.6,256-366.5,256-366.2,255.8L-366.2,255.8z
	"/>
<path class="st0" d="M-363.6,256c1.7,0,6,0.7,7.3,1.1c1.3,0.4,4,0.8,4.5,0.9c0.5,0.1,2.4,0.1,2.8,0.3c0.4,0.1,1.6,0.7,4,0.9
	c2.4,0.3,3.9,0.5,4.5,0.8c0.7,0.3,0.3,1.9-0.8,1.6c-1.1-0.3-5.4-0.8-6.5-0.9c-1.1-0.1-3.2-0.9-4.4-1.1c-1.2-0.1-4.3-0.8-6.8-1.1
	c-2.5-0.3-4.3-0.8-4.9-0.9C-364.5,257.4-365.3,256-363.6,256L-363.6,256z"/>
<path class="st0" d="M-384.3,270.2c0-0.9,1.5-1.3,1.6-0.1c0.1,1.2,0.3,3.2,0.4,4.8c0.1,1.6,0.3,3.1,0.4,4.1c0.1,1.1,0.8,3.7,0.9,4.5
	c0.1,0.8,0.3,2.4,0.3,3.3c0,0.9,0.3,2.3,0.1,2.9c-0.1,0.7-0.8,2.4-1.2,0.4c-0.4-2-0.1-4.5-0.4-5.2c-0.3-0.7-0.8-2.1-0.8-3.2
	c0-1.1-0.5-3.9-0.6-4.5C-383.8,276.6-384.3,271.2-384.3,270.2L-384.3,270.2z"/>
<path class="st0" d="M-381.4,292.7c0.1-0.5,1.2-0.9,1.6-0.3c0.4,0.7,0.3,1.7-0.6,1.9C-381.4,294.5-381.5,293.3-381.4,292.7
	L-381.4,292.7z"/>
<path class="st0" d="M-379.3,291c1.2-1.2,4.7-3.1,6.7-4.8c2-1.7,5.6-4.1,6.2-4.8c0.7-0.7,2.4-0.1,0.9,1.1c-1.5,1.2-4.9,3.7-6.4,4.9
	c-1.5,1.2-5.4,3.9-6.2,4.7C-378.9,292.9-380.5,292.2-379.3,291L-379.3,291z"/>
<path class="st0" d="M-363.7,279.1c0.5,0.1,0.5,1.2,0,1.5c-0.5,0.3-1.5,0.1-1.3-0.7C-364.9,279.1-364.2,279-363.7,279.1
	L-363.7,279.1z"/>
<path class="st0" d="M-377.4,294.1c1.9,0.5,6,3.2,7.3,3.7c1.3,0.5,3.9,1.9,5.1,2.5c1.2,0.7,4.1,2,4.9,2.4c0.8,0.4,1.5,0.5,1.9,0.9
	c0.4,0.4-0.1,1.9-1.2,1.3c-1.1-0.5-5.2-2.6-5.9-3.1c-0.7-0.4-3.2-1.7-4-2.3c-0.8-0.5-1.9-0.7-2.9-1.2c-1.1-0.5-4.8-2.5-6-3.2
	C-379.4,294.6-379.3,293.5-377.4,294.1L-377.4,294.1z"/>
<path class="st0" d="M-359.1,277.8c-0.1,1.3,0.1,3.8,0.3,4.5c0.1,0.7,0.6,3.5,0.5,5.5c-0.1,2,0,4.5,0.3,5.9c0.3,1.3,0.4,4.8,0.4,5.7
	c0,0.9,0.3,2.1,0.4,2.4c0.1,0.3,0.9,1.5,1.1-0.3c0.1-1.7,0-5.2,0.1-6.3c0.1-1.1-0.1-3.6-0.4-6.8c-0.3-3.2-0.4-5.8-0.4-6.7
	c0-0.8,0.3-2.8-0.3-3.6C-357.5,276.9-358.9,276.5-359.1,277.8L-359.1,277.8z"/>
<path class="st0" d="M-356.5,304.2c0.4-0.1,1.7,0.9,1.2,2.1c-0.5,1.2-1.3,0.7-1.9-0.3C-357.7,305.1-356.9,304.3-356.5,304.2
	L-356.5,304.2z"/>
<path class="st0" d="M-353.7,302.8c1.7-2,2.1-1.5,3.1-2.3c0.9-0.8,4.6-3.7,6-4.9c1.3-1.2,2.4-1.9,3.2-2.5c0.8-0.7,2,0.3,0.8,1.1
	c-1.2,0.7-3.9,3.4-4.9,4.8c-1.1,1.4-2,1.1-3.2,2.3c-1.2,1.2-1.9,2.1-2.5,2.4c-0.7,0.3-1.2,0.6-1.7,1.1
	C-353.6,305.1-355.5,304.9-353.7,302.8L-353.7,302.8z"/>
<path class="st0" d="M-361.3,280.1c0.8,0.3,4.1,1.5,6.4,2.5c2.3,1.1,7.7,3.3,8.8,4c1.1,0.7,5.3,2.3,5.9,2.7c0.5,0.4,0.6,2.4-0.5,1.9
	c-1.2-0.5-4.5-2.4-6.6-3.3c-2.1-0.9-5.5-2.5-7.1-2.9c-1.6-0.4-4.6-2.2-5.5-2.8c-0.8-0.5-1.7-0.5-2.1-1.2
	C-362.5,280.2-362.1,279.8-361.3,280.1L-361.3,280.1z"/>
<path class="st0" d="M-365.3,259.3c0.3,1.6,0.5,3.3,0.5,4.7c0,1.3,0.3,3.5,0.4,4.1c0.1,0.7,0.4,2.9,0.3,3.3c-0.1,0.4,0,3.6,0,4.4
	c0,0.8,0.3,1.9-0.5,1.9c-0.8,0-0.9-0.7-0.9-2.1c0-1.5-0.5-4.7-0.5-6c0-1.3-0.3-4.1-0.3-6c0-1.9-0.4-3.9-0.5-4.4
	C-367,258.7-365.6,257.7-365.3,259.3L-365.3,259.3z"/>
<path class="st1" d="M-197.9,290.5c0,2-0.6,3.5-1.8,4.6c-1.2,1.1-2.9,1.6-5.2,1.6c-2.2,0-3.9-0.5-5.1-1.6c-1.2-1.1-1.8-2.6-1.8-4.5
	v-5h5.9v5c0,0.6,0.1,1,0.2,1.2c0.2,0.3,0.4,0.4,0.8,0.4c0.4,0,0.6-0.1,0.8-0.4c0.2-0.2,0.2-0.7,0.2-1.2v-2.4c0-1.1-1-2.4-2.9-4
	c-0.4-0.3-0.8-0.6-1-0.8l-0.1-0.1c-2.7-2.2-4.1-4.5-4.1-6.7v-2.4c0-1.8,0.6-3.1,1.8-4.1c1.2-1,2.9-1.5,5.1-1.5
	c2.2,0,3.9,0.5,5.1,1.5c1.2,1,1.8,2.5,1.8,4.3v4.1h-5.9v-4.2c0-0.6-0.1-1-0.2-1.2c-0.2-0.2-0.4-0.4-0.8-0.4s-0.6,0.1-0.8,0.4
	c-0.2,0.2-0.2,0.7-0.2,1.2v1.4c0,1.2,0.9,2.5,2.8,4c0.4,0.3,0.8,0.6,1,0.8c1.9,1.5,3,2.7,3.5,3.5c0.5,0.8,0.7,1.9,0.7,3.3
	L-197.9,290.5L-197.9,290.5z"/>
<path class="st1" d="M-227.4,296v-26.7h5.8v2.2h0.1c0.5-0.9,1.1-1.6,1.8-2.1c0.7-0.4,1.5-0.7,2.4-0.7c1.3,0,2.2,0.4,2.9,1.1
	c0.6,0.8,1,1.9,1,3.4V296h-5.9v-20.7c0-0.6-0.1-1-0.2-1.3c-0.2-0.2-0.4-0.3-0.8-0.3c-0.4,0-0.6,0.1-0.8,0.4
	c-0.2,0.2-0.2,0.6-0.2,1.2V296H-227.4L-227.4,296z"/>
<path class="st1" d="M-243.2,274.8c0-2,0.6-3.5,1.8-4.6c1.2-1,2.9-1.5,5.2-1.5c2.5,0,4.3,0.6,5.3,1.7c1.1,1.1,1.6,3.1,1.6,5.9v16.2
	c0,0.7,0,1.3,0.1,1.9c0.1,0.6,0.2,1.1,0.3,1.6h-6c-0.1-0.3-0.1-0.6-0.2-0.9c-0.1-0.3-0.1-0.6-0.1-0.9v-0.4h-0.1
	c-0.4,0.9-1,1.5-1.7,2c-0.7,0.5-1.6,0.7-2.5,0.7c-1.2,0-2.2-0.4-2.8-1.1c-0.6-0.7-1-1.9-1-3.3v-5.7c0-1.4,0.3-2.5,0.8-3.4
	c0.5-0.9,1.3-1.6,2.4-2.2c0.4-0.2,0.9-0.5,1.5-0.8c2.2-1.1,3.3-2.2,3.3-3.2v-1.9c0-0.6-0.1-1-0.2-1.2c-0.2-0.3-0.5-0.4-0.8-0.4
	c-0.4,0-0.6,0.1-0.8,0.4c-0.2,0.2-0.2,0.7-0.2,1.2v3.9h-5.9L-243.2,274.8L-243.2,274.8z"/>
<path class="st2" d="M-235.1,290v-7.1c-0.1,0.1-0.2,0.2-0.4,0.3c-1.2,0.9-1.8,1.7-1.8,2.4v4.4c0,0.6,0.1,1,0.2,1.2
	c0.2,0.2,0.4,0.3,0.8,0.3c0.4,0,0.6-0.1,0.8-0.4C-235.2,290.9-235.1,290.5-235.1,290L-235.1,290z"/>
<path class="st1" d="M-252.9,290.6c0,0.6,0.1,1,0.3,1.2c0.2,0.3,0.4,0.4,0.8,0.4s0.6-0.1,0.8-0.4c0.2-0.2,0.2-0.7,0.2-1.2v-5h5.9v5
	c0,1.9-0.6,3.4-1.8,4.5c-1.2,1.1-2.9,1.6-5.1,1.6c-2.5,0-4.3-0.6-5.3-1.7c-1.1-1.1-1.6-3.1-1.6-5.9v-12.8c0-2.8,0.5-4.8,1.6-5.9
	c1.1-1.1,2.8-1.7,5.3-1.7c2.2,0,3.9,0.5,5.1,1.5c1.2,1,1.9,2.4,1.9,4.2v9.1h-8L-252.9,290.6L-252.9,290.6z"/>
<path class="st2" d="M-252.9,274.5v5h2.1v-5c0-0.6-0.1-1-0.2-1.2c-0.2-0.2-0.4-0.4-0.8-0.4c-0.4,0-0.6,0.1-0.8,0.4
	C-252.9,273.5-252.9,273.9-252.9,274.5L-252.9,274.5z"/>
<path class="st1" d="M-276,296v-33.3h7.8c2.6,0,4.5,0.5,5.8,1.4c1.3,0.9,1.9,2.4,1.9,4.3v3.9c0,1.8-0.4,3.1-1.1,4
	c-0.8,0.9-2.1,1.5-4,1.8v0.2c1.7,0.2,3,0.7,3.9,1.5c0.8,0.9,1.3,2.2,1.3,3.8v5.2c0,2.6-0.6,4.5-1.8,5.6c-1.2,1.1-3.4,1.6-6.3,1.6
	L-276,296L-276,296z"/>
<path class="st2" d="M-267.1,274.1v-5.3c0-0.8-0.1-1.2-0.4-1.5c-0.3-0.2-0.9-0.4-1.8-0.4v9.1c0.9,0,1.5-0.1,1.8-0.4
	C-267.3,275.4-267.1,274.9-267.1,274.1L-267.1,274.1z"/>
<path class="st2" d="M-267.1,289.4v-7c0-0.7-0.1-1.2-0.4-1.4c-0.3-0.3-0.8-0.4-1.4-0.4h-0.4v10.7h0.4c0.7,0,1.2-0.1,1.4-0.4
	C-267.3,290.6-267.1,290.1-267.1,289.4L-267.1,289.4z"/>
<path class="st1" d="M-286.2,273.6v-4.3h1.5v-5h5.9v5h1.7v4.3h-1.7v16.2c0,0.8,0.1,1.4,0.3,1.6c0.2,0.2,0.6,0.3,1.2,0.3h0.2v4.3
	h-3.7c-1.4,0-2.4-0.3-3-1c-0.6-0.7-0.9-1.9-0.9-3.7v-17.7H-286.2L-286.2,273.6z"/>
<path class="st1" d="M-295.1,290.6c0,0.6,0.1,1,0.2,1.2c0.2,0.3,0.4,0.4,0.8,0.4c0.4,0,0.6-0.1,0.8-0.4c0.2-0.2,0.2-0.7,0.2-1.2v-5
	h5.9v5c0,1.9-0.6,3.4-1.8,4.5c-1.2,1.1-2.9,1.6-5.1,1.6c-2.5,0-4.2-0.6-5.3-1.7c-1.1-1.1-1.6-3.1-1.6-5.9v-12.8
	c0-2.8,0.5-4.8,1.6-5.9c1.1-1.1,2.8-1.7,5.3-1.7c2.2,0,3.9,0.5,5.1,1.5c1.2,1,1.8,2.4,1.8,4.2v9.1h-8L-295.1,290.6L-295.1,290.6z"/>
<path class="st2" d="M-295.1,274.5v5h2.1v-5c0-0.6-0.1-1-0.2-1.2c-0.2-0.2-0.5-0.4-0.8-0.4c-0.4,0-0.6,0.1-0.8,0.4
	C-295,273.5-295.1,273.9-295.1,274.5L-295.1,274.5z"/>
<path class="st1" d="M-320.5,296v-33.3h9.1l2.3,14.1c0.2,1.3,0.4,2.7,0.5,4.2c0.2,1.6,0.3,3.4,0.4,5.4h0.3c-0.1-2.4-0.2-4.4-0.2-6.2
	c-0.1-1.8-0.1-3-0.1-3.8l0-13.8h5.2V296h-7.8l-3.4-18.1c-0.1-0.7-0.3-1.8-0.5-3.2c-0.2-1.4-0.4-3-0.6-4.7h-0.2
	c0.1,1.4,0.2,2.6,0.2,3.6c0.1,1.1,0.1,1.9,0.1,2.6V296L-320.5,296L-320.5,296z"/>
</svg>
