<?xml version="1.0" encoding="UTF-8" standalone="no"?>
<svg
   xmlns:dc="http://purl.org/dc/elements/1.1/"
   xmlns:cc="http://creativecommons.org/ns#"
   xmlns:rdf="http://www.w3.org/1999/02/22-rdf-syntax-ns#"
   xmlns:svg="http://www.w3.org/2000/svg"
   xmlns="http://www.w3.org/2000/svg"
   viewBox="0 0 258.66666 258.66666"
   height="258.66666"
   width="258.66666"
   xml:space="preserve"
   id="svg2"
   version="1.1"><metadata
     id="metadata8"><rdf:RDF><cc:Work
         rdf:about=""><dc:format>image/svg+xml</dc:format><dc:type
           rdf:resource="http://purl.org/dc/dcmitype/StillImage" /></cc:Work></rdf:RDF></metadata><defs
     id="defs6" /><g
     transform="matrix(1.3333333,0,0,-1.3333333,0,258.66667)"
     id="g10"><g
       transform="scale(0.1)"
       id="g12"><path
         id="path16"
         style="fill:#231f20;fill-opacity:1;fill-rule:evenodd;stroke:none"
         d="m 508.777,915.121 12.305,-2.664 -43.141,-136.781 H 87.6367 v 13.707 h 19.0313 c 21.32,0 36.547,6.98 45.684,20.808 5.199,7.989 7.738,26.395 7.738,55.067 V 1190.6 c 0,31.46 -3.43,51.13 -10.406,59 -9.645,10.91 -23.981,16.37 -43.016,16.37 H 87.6367 v 13.83 H 315.91 v -13.83 c -26.773,0.25 -45.555,-2.16 -56.344,-7.36 -10.781,-5.2 -18.14,-11.8 -22.074,-19.8 -3.933,-7.86 -5.965,-26.9 -5.965,-56.84 V 865.258 c 0,-20.555 2.032,-34.641 5.965,-42.383 2.918,-5.203 7.485,-9.008 13.703,-11.547 6.215,-2.41 25.504,-3.676 57.985,-3.676 h 36.8 c 38.7,0 65.856,2.793 81.458,8.5 15.609,5.711 29.82,15.86 42.765,30.325 12.817,14.464 25.754,37.437 38.574,68.644 v 0" /><path
         id="path18"
         style="fill:#231f20;fill-opacity:1;fill-rule:evenodd;stroke:none"
         d="M 568.91,1009.77 H 416.988 l -26.574,-61.934 c -6.617,-15.215 -9.875,-26.574 -9.875,-34.176 0,-5.933 2.863,-11.164 8.496,-15.711 5.727,-4.539 17.973,-7.511 36.942,-8.886 V 878.391 H 302.398 v 10.672 c 16.403,2.96 26.973,6.714 31.813,11.359 9.879,9.187 20.742,28.051 32.695,56.402 L 505,1279.74 h 10.078 L 651.691,953.363 c 10.965,-26.269 20.942,-43.261 29.93,-51.066 8.988,-7.805 21.535,-12.246 37.535,-13.234 V 878.391 H 564.27 v 10.672 c 15.609,0.789 26.175,3.457 31.707,7.906 5.531,4.34 8.3,9.773 8.3,16.195 0,8.488 -3.953,21.828 -11.66,40.199 l -23.707,56.407 z m -8.097,21.44 -66.579,158.54 -68.257,-158.54 h 134.836 v 0" /><path
         id="path20"
         style="fill:#231f20;fill-opacity:1;fill-rule:evenodd;stroke:none"
         d="m 1047.38,1283.15 5.63,-119.21 h -14.32 c -2.69,20.98 -6.4,35.94 -11.26,45.02 -7.68,14.46 -18.04,25.07 -30.825,31.98 -12.917,6.9 -29.8,10.36 -50.777,10.36 H 874.203 V 862.98 c 0,-31.21 3.449,-50.652 10.106,-58.453 9.461,-10.492 24.168,-15.73 43.867,-15.73 h 17.652 V 774.98 H 730.305 v 13.817 h 18.039 c 21.484,0 36.707,6.519 45.66,19.562 5.5,7.934 8.312,26.223 8.312,54.621 V 1251.3 H 741.18 c -23.664,0 -40.551,-1.79 -50.524,-5.24 -13.047,-4.74 -24.176,-13.95 -33.386,-27.38 -9.207,-13.55 -14.707,-31.72 -16.497,-54.74 h -14.199 l 6.012,119.21 h 414.794 v 0" /><path
         id="path22"
         style="fill:#231f20;fill-opacity:1;fill-rule:evenodd;stroke:none"
         d="M 1109.07,1116.48 V 923.895 h 107.09 c 27.84,0 46.36,4.175 55.68,12.515 12.52,11.039 19.39,30.418 20.86,58.266 h 13.25 V 825.031 h -13.25 c -3.32,23.672 -6.75,38.883 -10.06,45.633 -4.29,8.336 -11.41,14.961 -21.22,19.746 -9.82,4.781 -24.9,7.235 -45.26,7.235 H 1109.07 V 736.957 c 0,-21.586 0.98,-34.715 2.82,-39.375 1.96,-4.66 5.27,-8.344 10.06,-11.164 4.78,-2.695 13.98,-4.043 27.35,-4.043 h 82.68 c 27.47,0 47.59,1.836 59.98,5.762 12.51,3.804 24.41,11.285 35.94,22.566 14.85,14.848 30.06,37.297 45.63,67.227 h 14.35 L 1345.93,655.754 H 970.34 V 669 h 17.293 c 11.406,0 22.327,2.824 32.627,8.34 7.73,3.805 12.88,9.57 15.7,17.176 2.7,7.726 4.05,23.429 4.05,47.097 v 316.597 c 0,30.92 -3.06,49.93 -9.32,57.17 -8.59,9.57 -22.94,14.35 -43.057,14.35 H 970.34 v 13.37 h 375.59 l 5.4,-106.72 h -14.11 c -5.02,25.64 -10.54,43.18 -16.68,52.75 -6.13,9.57 -15.08,16.92 -27.11,21.96 -9.56,3.55 -26.49,5.39 -50.66,5.39 h -133.7 v 0" /><path
         id="path24"
         style="fill:#231f20;fill-opacity:1;fill-rule:evenodd;stroke:none"
         d="m 1614.77,1056.14 108.31,-161.402 c 29.97,-44.699 52.2,-72.894 66.8,-84.703 14.48,-11.808 32.89,-18.285 55.24,-19.558 v -13.711 h -216.51 v 13.711 c 14.34,0.257 25.02,1.785 32,4.578 5.2,2.156 9.39,5.586 12.82,10.152 3.3,4.574 4.95,9.273 4.95,13.973 0,5.711 -1.14,11.429 -3.3,17.144 -1.78,4.192 -8.63,15.106 -20.44,32.754 l -85.59,129.406 -105.66,-135.371 c -11.17,-14.472 -17.9,-24 -20.05,-28.824 -2.29,-4.824 -3.43,-9.91 -3.43,-15.109 0,-7.996 3.43,-14.477 10.03,-19.684 6.72,-5.207 19.55,-8.254 38.35,-9.019 v -13.711 h -178.93 v 13.711 c 12.7,1.273 23.5,3.941 32.77,7.878 15.36,6.477 29.96,15.11 43.8,26.024 13.98,10.926 29.85,27.691 47.62,50.293 l 119.12,150.228 -99.3,145.52 c -27.05,39.37 -50.04,65.28 -68.83,77.47 -18.92,12.31 -40.63,18.79 -65.15,19.55 v 13.84 h 233.28 v -13.84 c -19.81,-0.76 -33.4,-3.93 -40.76,-9.65 -7.24,-5.71 -10.92,-12.06 -10.92,-18.92 0,-9.27 5.96,-22.6 17.78,-40.25 l 77.46,-115.69 89.65,113.53 c 10.41,13.33 16.76,22.47 19.17,27.42 2.29,5.08 3.56,10.16 3.56,15.37 0,5.2 -1.53,9.78 -4.57,13.71 -3.69,5.21 -8.39,8.9 -14.1,10.92 -5.71,2.16 -17.52,3.31 -35.3,3.56 v 13.84 h 178.92 v -13.84 c -14.09,-0.76 -25.65,-2.92 -34.66,-6.6 -13.34,-5.71 -25.65,-13.46 -36.83,-23.11 -11.18,-9.65 -26.92,-27.56 -47.24,-53.59 l -100.06,-128 v 0" /></g></g></svg>